<svg id="Layer_1" data-name="Layer 1" xmlns="http://www.w3.org/2000/svg" width="800" height="800" viewBox="0 0 800 800"><defs><style>.cls-1{fill:#f0b90b;}.cls-2{fill:#fff;}.cls-3{fill:none;}</style></defs><title>binance-coin-bnb-logo-freelogovectors.net_</title><path class="cls-1" d="M400,24.5c207.38,0,375.5,168.12,375.5,375.5S607.38,775.5,400,775.5,24.5,607.38,24.5,400,192.62,24.5,400,24.5Z"/><path class="cls-2" d="M302.84,359.67,359.7,303l12-12,28.41-28.41,96.76,97.07L553.17,303,400.09,149.67,246.51,303Z"/><rect class="cls-2" x="360.18" y="359.92" width="79.98" height="79.98" transform="translate(-165.57 400.09) rotate(-45)"/><path class="cls-2" d="M496.85,440.46l-96.79,96.79-34-34L359.82,497l-57-56.54-56.33,56.32L400.09,650.11,553.17,496.79Z"/><rect class="cls-2" x="166.23" y="360.07" width="79.98" height="79.98" transform="translate(-222.49 263) rotate(-45)"/><rect class="cls-2" x="553.81" y="360.04" width="79.98" height="79.98" transform="translate(-108.94 537.05) rotate(-45)"/><rect class="cls-3" width="800" height="800"/></svg>