<svg width="24" height="24" viewBox="0 0 24 24" fill="none" xmlns="http://www.w3.org/2000/svg">
  <path d="M23.6406 14.9029C22.0377 21.3315 15.5259 25.2438 9.09593 23.6407C2.66856 22.038 -1.2442 15.5266 0.359457 9.09838C1.96161 2.66907 8.47337 -1.24364 14.9015 0.359095C21.3311 1.96183 25.2435 8.47401 23.6406 14.9029Z" fill="#F7931A"/>
  <path d="M17.2912 10.2905C17.5301 8.69373 16.3142 7.83536 14.6517 7.26274L15.191 5.09976L13.8742 4.77164L13.3492 6.87762C13.003 6.79137 12.6475 6.71 12.2942 6.62938L12.823 4.50952L11.507 4.1814L10.9673 6.34362C10.6808 6.27837 10.3995 6.21388 10.1265 6.14601L10.128 6.13925L8.31209 5.68588L7.96181 7.09211C7.96181 7.09211 8.93877 7.31599 8.91814 7.32986C9.45144 7.46299 9.54782 7.81586 9.5317 8.0956L8.91739 10.5597C8.95414 10.5691 9.00178 10.5826 9.05428 10.6036C9.0104 10.5927 8.96352 10.5807 8.91514 10.5691L8.05405 14.0209C7.9888 14.1829 7.82341 14.4259 7.45063 14.3337C7.46375 14.3528 6.49354 14.0948 6.49354 14.0948L5.83984 15.6019L7.55338 16.029C7.87216 16.1089 8.18457 16.1925 8.4921 16.2713L7.94718 18.459L9.26243 18.7871L9.8021 16.6226C10.1614 16.7201 10.5102 16.8101 10.8515 16.8949L10.3137 19.0492L11.6304 19.3774L12.1753 17.1938C14.4207 17.6186 16.1091 17.4473 16.8198 15.4167C17.3925 13.7817 16.7913 12.8386 15.6099 12.2236C16.4702 12.0252 17.1183 11.4593 17.2912 10.2905ZM14.2827 14.5088C13.8757 16.1438 11.1226 15.2599 10.23 15.0383L10.9531 12.1399C11.8457 12.3627 14.7079 12.8037 14.2827 14.5088ZM14.6899 10.2668C14.3187 11.7541 12.0272 10.9985 11.2839 10.8132L11.9394 8.18449C12.6828 8.36974 15.0766 8.71547 14.6899 10.2668Z" fill="white"/>
  </svg>