<svg width="15" height="15" viewBox="0 0 15 15" fill="none" xmlns="http://www.w3.org/2000/svg">
<path d="M7.5 0C3.35826 0 0 3.35826 0 7.5C0 11.6417 3.35826 15 7.5 15C11.6417 15 15 11.6417 15 7.5C15 3.35826 11.6417 0 7.5 0ZM7.5 13.7277C4.06138 13.7277 1.27232 10.9386 1.27232 7.5C1.27232 4.06138 4.06138 1.27232 7.5 1.27232C10.9386 1.27232 13.7277 4.06138 13.7277 7.5C13.7277 10.9386 10.9386 13.7277 7.5 13.7277Z" fill="#322E37"/>
<path d="M9.58594 4.2305C9.0837 3.7902 8.42076 3.54913 7.71763 3.54913C7.01451 3.54913 6.35156 3.79188 5.84933 4.2305C5.32701 4.68753 5.03906 5.30192 5.03906 5.95985V6.08708C5.03906 6.16074 5.09933 6.22101 5.17299 6.22101H5.97656C6.05022 6.22101 6.11049 6.16074 6.11049 6.08708V5.95985C6.11049 5.22157 6.83203 4.62056 7.71763 4.62056C8.60324 4.62056 9.32478 5.22157 9.32478 5.95985C9.32478 6.48049 8.95647 6.95762 8.3856 7.17692C8.03069 7.31253 7.72935 7.55025 7.51339 7.86163C7.29408 8.17971 7.18025 8.56141 7.18025 8.94813V9.30806C7.18025 9.38172 7.24051 9.44199 7.31417 9.44199H8.11775C8.19141 9.44199 8.25167 9.38172 8.25167 9.30806V8.92804C8.25254 8.76552 8.30236 8.60703 8.39464 8.47325C8.48691 8.33946 8.61736 8.23659 8.76897 8.17804C9.7567 7.79802 10.3945 6.92748 10.3945 5.95985C10.3962 5.30192 10.1083 4.68753 9.58594 4.2305ZM7.04799 11.1831C7.04799 11.3607 7.11854 11.531 7.24412 11.6566C7.36971 11.7822 7.54003 11.8527 7.71763 11.8527C7.89523 11.8527 8.06556 11.7822 8.19114 11.6566C8.31673 11.531 8.38728 11.3607 8.38728 11.1831C8.38728 11.0055 8.31673 10.8351 8.19114 10.7096C8.06556 10.584 7.89523 10.5134 7.71763 10.5134C7.54003 10.5134 7.36971 10.584 7.24412 10.7096C7.11854 10.8351 7.04799 11.0055 7.04799 11.1831Z" fill="#322E37"/>
</svg>
