<svg width="16" height="17" viewBox="0 0 16 17" fill="none" xmlns="http://www.w3.org/2000/svg">
<path d="M7.93408 0.882065C3.79234 0.882065 0.434082 4.45621 0.434082 8.86421C0.434082 13.2722 3.79234 16.8464 7.93408 16.8464C12.0758 16.8464 15.4341 13.2722 15.4341 8.86421C15.4341 4.45621 12.0758 0.882065 7.93408 0.882065ZM7.93408 15.4922C4.49547 15.4922 1.7064 12.5239 1.7064 8.86421C1.7064 5.20454 4.49547 2.23618 7.93408 2.23618C11.3727 2.23618 14.1618 5.20454 14.1618 8.86421C14.1618 12.5239 11.3727 15.4922 7.93408 15.4922Z" fill="#350870"/>
<path d="M10.02 5.38447C9.51778 4.91587 8.85484 4.6593 8.15171 4.6593C7.44859 4.6593 6.78564 4.91765 6.28341 5.38447C5.76109 5.87088 5.47314 6.52477 5.47314 7.22499V7.3604C5.47314 7.4388 5.53341 7.50294 5.60707 7.50294H6.41064C6.4843 7.50294 6.54457 7.4388 6.54457 7.3604V7.22499C6.54457 6.43925 7.26611 5.79961 8.15171 5.79961C9.03731 5.79961 9.75885 6.43925 9.75885 7.22499C9.75885 7.77911 9.39055 8.2869 8.81968 8.52031C8.46477 8.66463 8.16343 8.91763 7.94747 9.24903C7.72816 9.58756 7.61432 9.9938 7.61432 10.4054V10.7884C7.61432 10.8668 7.67459 10.931 7.74825 10.931H8.55182C8.62548 10.931 8.68575 10.8668 8.68575 10.7884V10.384C8.68662 10.211 8.73644 10.0424 8.82871 9.89996C8.92099 9.75758 9.05144 9.64809 9.20305 9.58578C10.1908 9.18133 10.8286 8.25483 10.8286 7.22499C10.8303 6.52477 10.5423 5.87088 10.02 5.38447ZM7.48207 12.784C7.48207 12.973 7.55262 13.1543 7.6782 13.2879C7.80379 13.4216 7.97411 13.4967 8.15171 13.4967C8.32931 13.4967 8.49964 13.4216 8.62522 13.2879C8.7508 13.1543 8.82135 12.973 8.82135 12.784C8.82135 12.595 8.7508 12.4137 8.62522 12.28C8.49964 12.1464 8.32931 12.0713 8.15171 12.0713C7.97411 12.0713 7.80379 12.1464 7.6782 12.28C7.55262 12.4137 7.48207 12.595 7.48207 12.784Z" fill="#350870"/>
</svg>
