<svg width="28" height="15" viewBox="0 0 28 15" fill="none" xmlns="http://www.w3.org/2000/svg">
<path d="M11.3529 4.772V11H10.5339V6.356L8.46388 11H7.88788L5.80888 6.347V11H4.98988V4.772H5.87188L8.17588 9.92L10.4799 4.772H11.3529ZM16.4498 9.605H13.7138L13.2098 11H12.3458L14.6138 4.763H15.5588L17.8178 11H16.9538L16.4498 9.605ZM16.2158 8.939L15.0818 5.771L13.9478 8.939H16.2158ZM21.3713 7.868L23.2973 11H22.3703L20.8673 8.552L19.4363 11H18.5273L20.4443 7.868L18.5183 4.727H19.4363L20.9483 7.184L22.3883 4.727H23.3063L21.3713 7.868Z" fill="#4500A0"/>
<rect x="0.5" y="0.5" width="27" height="13.7368" rx="3.5" stroke="#4500A0"/>
</svg>
