<svg width="28" height="28" viewBox="0 0 28 28" fill="none" xmlns="http://www.w3.org/2000/svg">
<path fill-rule="evenodd" clip-rule="evenodd" d="M16.2174 2.71893C16.3947 2.94662 16.4272 3.27161 16.4922 3.9216C16.6156 5.15597 16.6774 5.77316 17.0258 6.03663C17.162 6.13958 17.3223 6.20597 17.4914 6.22945C17.9241 6.28956 18.4041 5.89678 19.3642 5.11124C19.8698 4.6976 20.1226 4.49078 20.4089 4.45512C20.5241 4.44078 20.641 4.4466 20.7542 4.47234C21.0355 4.53631 21.2665 4.76726 21.7284 5.22915L22.7708 6.27153C23.2327 6.73343 23.4636 6.96438 23.5276 7.24577C23.5533 7.35897 23.5591 7.47579 23.5448 7.59099C23.5091 7.87735 23.3023 8.13013 22.8887 8.6357C22.1031 9.59583 21.7103 10.0759 21.7704 10.5086C21.7939 10.6777 21.8603 10.8379 21.9633 10.9741C22.2267 11.3226 22.8439 11.3843 24.0783 11.5077C24.7283 11.5727 25.0534 11.6052 25.281 11.7825C25.3726 11.8538 25.4511 11.9406 25.513 12.0388C25.6667 12.283 25.6667 12.6096 25.6667 13.2629V14.7371C25.6667 15.3902 25.6667 15.7168 25.513 15.9609C25.4512 16.0592 25.3726 16.146 25.281 16.2174C25.0533 16.3946 24.7283 16.4271 24.0784 16.4921C22.8443 16.6155 22.2273 16.6772 21.9638 17.0255C21.8608 17.1618 21.7943 17.3222 21.7708 17.4914C21.7109 17.924 22.1035 18.4039 22.8889 19.3638C23.3024 19.8692 23.5091 20.1219 23.5448 20.4082C23.5592 20.5235 23.5534 20.6404 23.5276 20.7537C23.4636 21.035 23.2327 21.2659 22.771 21.7276L21.7284 22.7702C21.2665 23.2321 21.0356 23.463 20.7542 23.527C20.641 23.5527 20.5242 23.5585 20.409 23.5442C20.1226 23.5085 19.8698 23.3017 19.3643 22.8881L19.3643 22.8881C18.4042 22.1025 17.9241 21.7098 17.4914 21.7699C17.3223 21.7934 17.1621 21.8597 17.0259 21.9627C16.6774 22.2262 16.6157 22.8434 16.4922 24.078C16.4272 24.7282 16.3947 25.0533 16.2174 25.281C16.1461 25.3725 16.0594 25.451 15.9613 25.5128C15.717 25.6666 15.3903 25.6666 14.7369 25.6666H13.263C12.6097 25.6666 12.2831 25.6666 12.0389 25.5128C11.9407 25.451 11.854 25.3725 11.7827 25.2809C11.6054 25.0532 11.5729 24.7282 11.5079 24.0782C11.3844 22.8438 11.3227 22.2266 10.9742 21.9631C10.8381 21.8602 10.6778 21.7938 10.5088 21.7703C10.076 21.7102 9.59596 22.103 8.63581 22.8886L8.63579 22.8886C8.1302 23.3022 7.87741 23.5091 7.59105 23.5447C7.47586 23.5591 7.35905 23.5532 7.24586 23.5275C6.96446 23.4635 6.7335 23.2326 6.27158 22.7707L5.22924 21.7283C4.76733 21.2664 4.53637 21.0355 4.47241 20.7541C4.44667 20.6409 4.44085 20.5241 4.45519 20.4089C4.49084 20.1225 4.69767 19.8697 5.11133 19.3641C5.89689 18.404 6.28967 17.9239 6.22956 17.4912C6.20608 17.3221 6.1397 17.1619 6.03674 17.0257C5.77327 16.6772 5.15609 16.6155 3.92171 16.4921C3.27173 16.4271 2.94674 16.3946 2.71905 16.2173C2.62745 16.146 2.54896 16.0593 2.48711 15.961C2.33337 15.7168 2.33337 15.3902 2.33337 14.737V13.263C2.33337 12.6096 2.33337 12.2829 2.48717 12.0387C2.54899 11.9405 2.62742 11.8539 2.71896 11.7826C2.94668 11.6053 3.27174 11.5727 3.92185 11.5077H3.92187C5.1565 11.3843 5.77382 11.3225 6.03729 10.9739C6.14015 10.8378 6.20648 10.6777 6.22998 10.5087C6.29017 10.0759 5.89729 9.59575 5.11153 8.63537C4.69774 8.12962 4.49084 7.87675 4.45522 7.5903C4.44091 7.47521 4.44673 7.3585 4.47242 7.2454C4.53637 6.96392 4.76739 6.7329 5.22943 6.27085L6.27164 5.22865L6.27164 5.22865C6.73356 4.76673 6.96451 4.53577 7.24591 4.47181C7.3591 4.44608 7.47591 4.44025 7.5911 4.45459C7.87746 4.49024 8.13029 4.69709 8.63594 5.11081L8.63594 5.11081C9.59597 5.89629 10.076 6.28903 10.5086 6.22902C10.6778 6.20554 10.8382 6.13912 10.9744 6.03607C11.3228 5.7726 11.3845 5.15555 11.5079 3.92144C11.5729 3.2716 11.6054 2.94668 11.7826 2.71902C11.8539 2.62735 11.9407 2.5488 12.039 2.48692C12.2832 2.33325 12.6097 2.33325 13.2628 2.33325H14.7371C15.3903 2.33325 15.7169 2.33325 15.9611 2.48699C16.0594 2.54884 16.1461 2.62732 16.2174 2.71893ZM14 18.6666C16.5774 18.6666 18.6667 16.5772 18.6667 13.9999C18.6667 11.4226 16.5774 9.33325 14 9.33325C11.4227 9.33325 9.33337 11.4226 9.33337 13.9999C9.33337 16.5772 11.4227 18.6666 14 18.6666Z" fill="white"/>
</svg>