<svg width="24" height="24" viewBox="0 0 24 24" fill="none" xmlns="http://www.w3.org/2000/svg">
<path d="M12 24C18.6274 24 24 18.6274 24 12C24 5.37258 18.6274 0 12 0C5.37258 0 0 5.37258 0 12C0 18.6274 5.37258 24 12 24Z" fill="#26A17B"/>
<path fill-rule="evenodd" clip-rule="evenodd" d="M13.4415 13.0375V13.036C13.359 13.042 12.9337 13.0675 11.985 13.0675C11.2275 13.0675 10.6942 13.045 10.5067 13.036V13.0383C7.59072 12.91 5.41423 12.4023 5.41423 11.7948C5.41423 11.188 7.59072 10.6803 10.5067 10.5498V12.5328C10.6972 12.5463 11.2432 12.5785 11.9977 12.5785C12.903 12.5785 13.3567 12.541 13.4415 12.5335V10.5513C16.3515 10.681 18.5227 11.1888 18.5227 11.7948C18.5227 12.4023 16.3515 12.9085 13.4415 13.0375V13.0375ZM13.4415 10.345V8.5705H17.502V5.8645H6.44623V8.5705H10.5067V10.3443C7.20672 10.4958 4.72498 11.1498 4.72498 11.9328C4.72498 12.7158 7.20672 13.369 10.5067 13.5213V19.2078H13.4415V13.5197C16.7362 13.3682 19.212 12.715 19.212 11.9328C19.212 11.1505 16.7362 10.4973 13.4415 10.345" fill="white"/>
</svg>
